<mxfile host="app.diagrams.net" agent="Mozilla/5.0 (Windows NT 10.0; Win64; x64) AppleWebKit/537.36 (KHTML, like Gecko) Chrome/126.0.0.0 YaBrowser/24.7.0.0 Safari/537.36" version="24.7.8">
  <diagram name="Page-1" id="0783ab3e-0a74-02c8-0abd-f7b4e66b4bec">
    <mxGraphModel dx="913" dy="1677" grid="1" gridSize="10" guides="1" tooltips="1" connect="1" arrows="1" fold="1" page="1" pageScale="1" pageWidth="850" pageHeight="1100" background="none" math="0" shadow="0">
      <root>
        <mxCell id="0" />
        <mxCell id="1" parent="0" />
        <mxCell id="1c1d494c118603dd-1" value="&lt;span style=&quot;color: rgb(44, 45, 48); font-family: Onest, Roboto, &amp;quot;San Francisco&amp;quot;, &amp;quot;Helvetica Neue&amp;quot;, Helvetica, Arial; font-size: 15px; font-weight: 400; text-align: start; text-wrap: wrap; background-color: rgb(255, 255, 255);&quot;&gt;Заказ товара с маркетплейса&lt;/span&gt;" style="swimlane;html=1;childLayout=stackLayout;startSize=20;rounded=0;shadow=0;comic=0;labelBackgroundColor=none;strokeWidth=1;fontFamily=Verdana;fontSize=12;align=center;" parent="1" vertex="1">
          <mxGeometry x="35" y="-40" width="780" height="1040" as="geometry" />
        </mxCell>
        <mxCell id="1c1d494c118603dd-2" value="Клиент" style="swimlane;html=1;startSize=20;" parent="1c1d494c118603dd-1" vertex="1">
          <mxGeometry y="20" width="250" height="1020" as="geometry" />
        </mxCell>
        <mxCell id="60571a20871a0731-4" value="" style="ellipse;whiteSpace=wrap;html=1;rounded=0;shadow=0;comic=0;labelBackgroundColor=none;strokeWidth=1;fillColor=#000000;fontFamily=Verdana;fontSize=12;align=center;" parent="1c1d494c118603dd-2" vertex="1">
          <mxGeometry x="100" y="40" width="40" height="40" as="geometry" />
        </mxCell>
        <mxCell id="60571a20871a0731-8" value="Поиск предложения" style="rounded=1;whiteSpace=wrap;html=1;shadow=0;comic=0;labelBackgroundColor=none;strokeWidth=1;fontFamily=Verdana;fontSize=12;align=center;arcSize=50;" parent="1c1d494c118603dd-2" vertex="1">
          <mxGeometry x="70" y="100" width="100" height="30" as="geometry" />
        </mxCell>
        <mxCell id="1c1d494c118603dd-27" style="edgeStyle=orthogonalEdgeStyle;rounded=0;html=1;labelBackgroundColor=none;startArrow=none;startFill=0;startSize=5;endArrow=classicThin;endFill=1;endSize=5;jettySize=auto;orthogonalLoop=1;strokeWidth=1;fontFamily=Verdana;fontSize=12" parent="1c1d494c118603dd-2" source="60571a20871a0731-4" target="60571a20871a0731-8" edge="1">
          <mxGeometry relative="1" as="geometry" />
        </mxCell>
        <mxCell id="hc2_yyY3CF_E-ySlYLsW-4" value="Выбор, оформление Заказа" style="whiteSpace=wrap;html=1;fontFamily=Verdana;rounded=1;shadow=0;comic=0;labelBackgroundColor=none;strokeWidth=1;arcSize=50;" vertex="1" parent="1c1d494c118603dd-2">
          <mxGeometry x="50" y="180" width="130" height="40" as="geometry" />
        </mxCell>
        <mxCell id="hc2_yyY3CF_E-ySlYLsW-12" value="Оплата" style="whiteSpace=wrap;html=1;fontFamily=Verdana;rounded=1;shadow=0;comic=0;labelBackgroundColor=none;strokeWidth=1;arcSize=50;" vertex="1" parent="1c1d494c118603dd-2">
          <mxGeometry x="90" y="440" width="130" height="40" as="geometry" />
        </mxCell>
        <mxCell id="hc2_yyY3CF_E-ySlYLsW-25" value="Принятие товара" style="rounded=1;whiteSpace=wrap;html=1;shadow=0;comic=0;labelBackgroundColor=none;strokeWidth=1;fontFamily=Verdana;fontSize=12;align=center;arcSize=50;" vertex="1" parent="1c1d494c118603dd-2">
          <mxGeometry x="21" y="740" width="139" height="50" as="geometry" />
        </mxCell>
        <mxCell id="hc2_yyY3CF_E-ySlYLsW-27" value="Отзыв" style="rounded=1;whiteSpace=wrap;html=1;shadow=0;comic=0;labelBackgroundColor=none;strokeWidth=1;fontFamily=Verdana;fontSize=12;align=center;arcSize=50;" vertex="1" parent="1c1d494c118603dd-2">
          <mxGeometry x="90" y="850" width="139" height="50" as="geometry" />
        </mxCell>
        <mxCell id="hc2_yyY3CF_E-ySlYLsW-66" value="" style="edgeStyle=orthogonalEdgeStyle;rounded=0;orthogonalLoop=1;jettySize=auto;html=1;" edge="1" parent="1c1d494c118603dd-2" source="hc2_yyY3CF_E-ySlYLsW-65" target="hc2_yyY3CF_E-ySlYLsW-25">
          <mxGeometry relative="1" as="geometry" />
        </mxCell>
        <mxCell id="hc2_yyY3CF_E-ySlYLsW-67" style="edgeStyle=orthogonalEdgeStyle;rounded=0;orthogonalLoop=1;jettySize=auto;html=1;entryX=0.5;entryY=1;entryDx=0;entryDy=0;" edge="1" parent="1c1d494c118603dd-2" source="hc2_yyY3CF_E-ySlYLsW-65" target="hc2_yyY3CF_E-ySlYLsW-68">
          <mxGeometry relative="1" as="geometry">
            <mxPoint x="34.999999999999886" y="370" as="targetPoint" />
          </mxGeometry>
        </mxCell>
        <mxCell id="hc2_yyY3CF_E-ySlYLsW-65" value="" style="rhombus;whiteSpace=wrap;html=1;" vertex="1" parent="1c1d494c118603dd-2">
          <mxGeometry x="80" y="625" width="80" height="80" as="geometry" />
        </mxCell>
        <mxCell id="hc2_yyY3CF_E-ySlYLsW-68" value="Оформление возврата" style="whiteSpace=wrap;html=1;fontFamily=Verdana;rounded=1;shadow=0;comic=0;labelBackgroundColor=none;strokeWidth=1;arcSize=50;" vertex="1" parent="1c1d494c118603dd-2">
          <mxGeometry x="10" y="330" width="130" height="40" as="geometry" />
        </mxCell>
        <mxCell id="1c1d494c118603dd-3" value="Маркетплейс" style="swimlane;html=1;startSize=20;strokeColor=default;" parent="1c1d494c118603dd-1" vertex="1">
          <mxGeometry x="250" y="20" width="280" height="1020" as="geometry" />
        </mxCell>
        <mxCell id="1c1d494c118603dd-6" value="формирование&lt;div&gt;списка предлодений&lt;/div&gt;" style="rounded=1;whiteSpace=wrap;html=1;shadow=0;comic=0;labelBackgroundColor=none;strokeWidth=1;fontFamily=Verdana;fontSize=12;align=center;arcSize=50;" parent="1c1d494c118603dd-3" vertex="1">
          <mxGeometry x="73.51" y="100" width="116" height="50" as="geometry" />
        </mxCell>
        <mxCell id="1c1d494c118603dd-10" value="БД Маркетплейса" style="rounded=0;whiteSpace=wrap;html=1;shadow=0;comic=0;labelBackgroundColor=none;strokeWidth=1;fontFamily=Verdana;fontSize=12;align=center;arcSize=50;" parent="1c1d494c118603dd-3" vertex="1">
          <mxGeometry x="16.25" y="305" width="133.75" height="30" as="geometry" />
        </mxCell>
        <mxCell id="hc2_yyY3CF_E-ySlYLsW-11" style="rounded=0;orthogonalLoop=1;jettySize=auto;html=1;exitX=0;exitY=0;exitDx=75;exitDy=10;exitPerimeter=0;entryX=0.5;entryY=1;entryDx=0;entryDy=0;dashed=1;endArrow=oval;endFill=1;" edge="1" parent="1c1d494c118603dd-3" source="1c1d494c118603dd-21" target="hc2_yyY3CF_E-ySlYLsW-8">
          <mxGeometry relative="1" as="geometry" />
        </mxCell>
        <mxCell id="1c1d494c118603dd-21" value="Заказ" style="shape=note;whiteSpace=wrap;html=1;rounded=0;shadow=0;comic=0;labelBackgroundColor=none;strokeWidth=1;fontFamily=Verdana;fontSize=12;align=center;size=20;" parent="1c1d494c118603dd-3" vertex="1">
          <mxGeometry x="16.25" y="250" width="85" height="42" as="geometry" />
        </mxCell>
        <mxCell id="1c1d494c118603dd-47" style="edgeStyle=none;rounded=0;html=1;dashed=1;labelBackgroundColor=none;startArrow=none;startFill=0;startSize=5;endArrow=oval;endFill=0;endSize=5;jettySize=auto;orthogonalLoop=1;strokeWidth=1;fontFamily=Verdana;fontSize=12" parent="1c1d494c118603dd-3" source="1c1d494c118603dd-21" target="1c1d494c118603dd-10" edge="1">
          <mxGeometry relative="1" as="geometry" />
        </mxCell>
        <mxCell id="hc2_yyY3CF_E-ySlYLsW-8" value="Принятие заказа" style="whiteSpace=wrap;html=1;fontFamily=Verdana;rounded=1;shadow=0;comic=0;labelBackgroundColor=none;strokeWidth=1;arcSize=50;" vertex="1" parent="1c1d494c118603dd-3">
          <mxGeometry x="60" y="170" width="130" height="40" as="geometry" />
        </mxCell>
        <mxCell id="hc2_yyY3CF_E-ySlYLsW-31" style="rounded=0;orthogonalLoop=1;jettySize=auto;html=1;dashed=1;exitX=0.5;exitY=0;exitDx=0;exitDy=0;exitPerimeter=0;endArrow=oval;endFill=0;" edge="1" parent="1c1d494c118603dd-3" source="hc2_yyY3CF_E-ySlYLsW-30" target="1c1d494c118603dd-10">
          <mxGeometry relative="1" as="geometry">
            <mxPoint x="178" y="740" as="sourcePoint" />
          </mxGeometry>
        </mxCell>
        <mxCell id="1c1d494c118603dd-7" value="Выдача Заказа" style="rounded=1;whiteSpace=wrap;html=1;shadow=0;comic=0;labelBackgroundColor=none;strokeWidth=1;fontFamily=Verdana;fontSize=12;align=center;arcSize=50;" parent="1c1d494c118603dd-3" vertex="1">
          <mxGeometry x="16.25" y="640" width="139" height="50" as="geometry" />
        </mxCell>
        <mxCell id="hc2_yyY3CF_E-ySlYLsW-23" style="edgeStyle=orthogonalEdgeStyle;rounded=0;orthogonalLoop=1;jettySize=auto;html=1;entryX=0.5;entryY=0;entryDx=0;entryDy=0;" edge="1" parent="1c1d494c118603dd-3" source="1c1d494c118603dd-12" target="1c1d494c118603dd-7">
          <mxGeometry relative="1" as="geometry" />
        </mxCell>
        <mxCell id="1c1d494c118603dd-12" value="" style="whiteSpace=wrap;html=1;rounded=0;shadow=0;comic=0;labelBackgroundColor=none;strokeWidth=1;fillColor=#000000;fontFamily=Verdana;fontSize=12;align=center;rotation=0;" parent="1c1d494c118603dd-3" vertex="1">
          <mxGeometry x="-70" y="590" width="270" height="10" as="geometry" />
        </mxCell>
        <mxCell id="hc2_yyY3CF_E-ySlYLsW-19" style="edgeStyle=orthogonalEdgeStyle;rounded=0;orthogonalLoop=1;jettySize=auto;html=1;entryX=0.5;entryY=0;entryDx=0;entryDy=0;exitX=0.75;exitY=1;exitDx=0;exitDy=0;" edge="1" parent="1c1d494c118603dd-3" source="hc2_yyY3CF_E-ySlYLsW-16" target="hc2_yyY3CF_E-ySlYLsW-18">
          <mxGeometry relative="1" as="geometry" />
        </mxCell>
        <mxCell id="hc2_yyY3CF_E-ySlYLsW-54" style="edgeStyle=orthogonalEdgeStyle;rounded=0;orthogonalLoop=1;jettySize=auto;html=1;" edge="1" parent="1c1d494c118603dd-3" source="hc2_yyY3CF_E-ySlYLsW-16">
          <mxGeometry relative="1" as="geometry">
            <mxPoint x="350" y="460" as="targetPoint" />
          </mxGeometry>
        </mxCell>
        <mxCell id="hc2_yyY3CF_E-ySlYLsW-16" value="" style="whiteSpace=wrap;html=1;rounded=0;shadow=0;comic=0;labelBackgroundColor=none;strokeWidth=1;fillColor=#000000;fontFamily=Verdana;fontSize=12;align=center;rotation=0;" vertex="1" parent="1c1d494c118603dd-3">
          <mxGeometry x="-45.75" y="390" width="235.75" height="10" as="geometry" />
        </mxCell>
        <mxCell id="hc2_yyY3CF_E-ySlYLsW-20" style="edgeStyle=orthogonalEdgeStyle;rounded=0;orthogonalLoop=1;jettySize=auto;html=1;" edge="1" parent="1c1d494c118603dd-3" source="hc2_yyY3CF_E-ySlYLsW-18">
          <mxGeometry relative="1" as="geometry">
            <mxPoint x="105" y="510" as="targetPoint" />
          </mxGeometry>
        </mxCell>
        <mxCell id="hc2_yyY3CF_E-ySlYLsW-18" value="Передача в доставку" style="whiteSpace=wrap;html=1;fontFamily=Verdana;rounded=1;shadow=0;comic=0;labelBackgroundColor=none;strokeWidth=1;arcSize=50;" vertex="1" parent="1c1d494c118603dd-3">
          <mxGeometry x="40" y="440" width="130" height="40" as="geometry" />
        </mxCell>
        <mxCell id="hc2_yyY3CF_E-ySlYLsW-21" value="Доставка" style="whiteSpace=wrap;html=1;fontFamily=Verdana;rounded=1;shadow=0;comic=0;labelBackgroundColor=none;strokeWidth=1;arcSize=50;" vertex="1" parent="1c1d494c118603dd-3">
          <mxGeometry x="40" y="510" width="130" height="40" as="geometry" />
        </mxCell>
        <mxCell id="hc2_yyY3CF_E-ySlYLsW-22" style="edgeStyle=orthogonalEdgeStyle;rounded=0;orthogonalLoop=1;jettySize=auto;html=1;entryX=0.651;entryY=0.047;entryDx=0;entryDy=0;entryPerimeter=0;" edge="1" parent="1c1d494c118603dd-3" source="hc2_yyY3CF_E-ySlYLsW-21" target="1c1d494c118603dd-12">
          <mxGeometry relative="1" as="geometry" />
        </mxCell>
        <mxCell id="hc2_yyY3CF_E-ySlYLsW-30" value="Отзыв" style="shape=note;whiteSpace=wrap;html=1;rounded=0;shadow=0;comic=0;labelBackgroundColor=none;strokeWidth=1;fontFamily=Verdana;fontSize=12;align=center;size=20;" vertex="1" parent="1c1d494c118603dd-3">
          <mxGeometry x="155.25" y="790" width="85" height="42" as="geometry" />
        </mxCell>
        <mxCell id="hc2_yyY3CF_E-ySlYLsW-62" value="" style="edgeStyle=orthogonalEdgeStyle;rounded=0;orthogonalLoop=1;jettySize=auto;html=1;entryX=0.483;entryY=0.131;entryDx=0;entryDy=0;entryPerimeter=0;" edge="1" parent="1c1d494c118603dd-3" source="hc2_yyY3CF_E-ySlYLsW-38" target="hc2_yyY3CF_E-ySlYLsW-60">
          <mxGeometry relative="1" as="geometry" />
        </mxCell>
        <mxCell id="hc2_yyY3CF_E-ySlYLsW-38" value="Формирование склада" style="whiteSpace=wrap;html=1;fontFamily=Verdana;rounded=1;shadow=0;comic=0;labelBackgroundColor=none;strokeWidth=1;arcSize=50;" vertex="1" parent="1c1d494c118603dd-3">
          <mxGeometry x="62" y="20" width="130" height="40" as="geometry" />
        </mxCell>
        <mxCell id="hc2_yyY3CF_E-ySlYLsW-47" value="Оплата Селлеру" style="rounded=1;whiteSpace=wrap;html=1;shadow=0;comic=0;labelBackgroundColor=none;strokeWidth=1;fontFamily=Verdana;fontSize=12;align=center;arcSize=50;" vertex="1" parent="1c1d494c118603dd-3">
          <mxGeometry x="35.5" y="720" width="139" height="50" as="geometry" />
        </mxCell>
        <mxCell id="hc2_yyY3CF_E-ySlYLsW-59" style="edgeStyle=orthogonalEdgeStyle;rounded=0;orthogonalLoop=1;jettySize=auto;html=1;entryX=0.938;entryY=-0.282;entryDx=0;entryDy=0;entryPerimeter=0;" edge="1" parent="1c1d494c118603dd-3" source="hc2_yyY3CF_E-ySlYLsW-8" target="hc2_yyY3CF_E-ySlYLsW-16">
          <mxGeometry relative="1" as="geometry" />
        </mxCell>
        <mxCell id="hc2_yyY3CF_E-ySlYLsW-63" style="edgeStyle=orthogonalEdgeStyle;rounded=0;orthogonalLoop=1;jettySize=auto;html=1;entryX=1;entryY=0.5;entryDx=0;entryDy=0;" edge="1" parent="1c1d494c118603dd-3" source="hc2_yyY3CF_E-ySlYLsW-60" target="1c1d494c118603dd-6">
          <mxGeometry relative="1" as="geometry">
            <Array as="points">
              <mxPoint x="240" y="125" />
            </Array>
          </mxGeometry>
        </mxCell>
        <mxCell id="hc2_yyY3CF_E-ySlYLsW-60" value="" style="whiteSpace=wrap;html=1;rounded=0;shadow=0;comic=0;labelBackgroundColor=none;strokeWidth=1;fillColor=#000000;fontFamily=Verdana;fontSize=12;align=center;rotation=0;" vertex="1" parent="1c1d494c118603dd-3">
          <mxGeometry x="13.629999999999999" y="80" width="235.75" height="10" as="geometry" />
        </mxCell>
        <mxCell id="hc2_yyY3CF_E-ySlYLsW-73" style="edgeStyle=orthogonalEdgeStyle;rounded=0;orthogonalLoop=1;jettySize=auto;html=1;" edge="1" parent="1c1d494c118603dd-3" source="hc2_yyY3CF_E-ySlYLsW-71">
          <mxGeometry relative="1" as="geometry">
            <mxPoint x="365" y="935" as="targetPoint" />
          </mxGeometry>
        </mxCell>
        <mxCell id="hc2_yyY3CF_E-ySlYLsW-71" value="Возврат средств" style="rounded=1;whiteSpace=wrap;html=1;shadow=0;comic=0;labelBackgroundColor=none;strokeWidth=1;fontFamily=Verdana;fontSize=12;align=center;arcSize=50;" vertex="1" parent="1c1d494c118603dd-3">
          <mxGeometry x="71" y="910" width="139" height="50" as="geometry" />
        </mxCell>
        <mxCell id="1c1d494c118603dd-4" value="Селлер" style="swimlane;html=1;startSize=20;" parent="1c1d494c118603dd-1" vertex="1">
          <mxGeometry x="530" y="20" width="250" height="1020" as="geometry" />
        </mxCell>
        <mxCell id="hc2_yyY3CF_E-ySlYLsW-37" value="Передача товара" style="whiteSpace=wrap;html=1;fontFamily=Verdana;rounded=1;shadow=0;comic=0;labelBackgroundColor=none;strokeWidth=1;arcSize=50;" vertex="1" parent="1c1d494c118603dd-4">
          <mxGeometry x="70" y="40" width="130" height="40" as="geometry" />
        </mxCell>
        <mxCell id="hc2_yyY3CF_E-ySlYLsW-45" value="" style="edgeStyle=orthogonalEdgeStyle;rounded=0;orthogonalLoop=1;jettySize=auto;html=1;" edge="1" parent="1c1d494c118603dd-4" source="hc2_yyY3CF_E-ySlYLsW-41" target="60571a20871a0731-5">
          <mxGeometry relative="1" as="geometry" />
        </mxCell>
        <mxCell id="hc2_yyY3CF_E-ySlYLsW-41" value="Отработка отзыва" style="rounded=1;whiteSpace=wrap;html=1;shadow=0;comic=0;labelBackgroundColor=none;strokeWidth=1;fontFamily=Verdana;fontSize=12;align=center;arcSize=50;" vertex="1" parent="1c1d494c118603dd-4">
          <mxGeometry x="40" y="820" width="139" height="50" as="geometry" />
        </mxCell>
        <mxCell id="60571a20871a0731-5" value="" style="shape=mxgraph.bpmn.shape;html=1;verticalLabelPosition=bottom;labelBackgroundColor=#ffffff;verticalAlign=top;perimeter=ellipsePerimeter;outline=end;symbol=terminate;rounded=0;shadow=0;comic=0;strokeWidth=1;fontFamily=Verdana;fontSize=12;align=center;" parent="1c1d494c118603dd-4" vertex="1">
          <mxGeometry x="89.5" y="910" width="40" height="40" as="geometry" />
        </mxCell>
        <mxCell id="hc2_yyY3CF_E-ySlYLsW-50" value="Принятие оплаты" style="rounded=1;whiteSpace=wrap;html=1;shadow=0;comic=0;labelBackgroundColor=none;strokeWidth=1;fontFamily=Verdana;fontSize=12;align=center;arcSize=50;" vertex="1" parent="1c1d494c118603dd-4">
          <mxGeometry x="50" y="720" width="139" height="50" as="geometry" />
        </mxCell>
        <mxCell id="hc2_yyY3CF_E-ySlYLsW-55" value="Мониторинг продаж" style="whiteSpace=wrap;html=1;fontFamily=Verdana;rounded=1;shadow=0;comic=0;labelBackgroundColor=none;strokeWidth=1;arcSize=50;" vertex="1" parent="1c1d494c118603dd-4">
          <mxGeometry x="30" y="460" width="180" height="40" as="geometry" />
        </mxCell>
        <mxCell id="hc2_yyY3CF_E-ySlYLsW-3" style="edgeStyle=orthogonalEdgeStyle;rounded=0;orthogonalLoop=1;jettySize=auto;html=1;entryX=0.024;entryY=-0.035;entryDx=0;entryDy=0;entryPerimeter=0;" edge="1" parent="1c1d494c118603dd-1" source="60571a20871a0731-8" target="hc2_yyY3CF_E-ySlYLsW-60">
          <mxGeometry relative="1" as="geometry" />
        </mxCell>
        <mxCell id="hc2_yyY3CF_E-ySlYLsW-5" value="" style="edgeStyle=orthogonalEdgeStyle;rounded=0;orthogonalLoop=1;jettySize=auto;html=1;" edge="1" parent="1c1d494c118603dd-1" source="1c1d494c118603dd-6" target="hc2_yyY3CF_E-ySlYLsW-4">
          <mxGeometry relative="1" as="geometry">
            <Array as="points">
              <mxPoint x="110" y="180" />
            </Array>
          </mxGeometry>
        </mxCell>
        <mxCell id="1c1d494c118603dd-46" style="edgeStyle=none;rounded=0;html=1;labelBackgroundColor=none;startArrow=none;startFill=0;startSize=5;endArrow=oval;endFill=0;endSize=5;jettySize=auto;orthogonalLoop=1;strokeWidth=1;fontFamily=Verdana;fontSize=12;dashed=1;entryX=0.5;entryY=1;entryDx=0;entryDy=0;" parent="1c1d494c118603dd-1" source="1c1d494c118603dd-21" target="hc2_yyY3CF_E-ySlYLsW-4" edge="1">
          <mxGeometry relative="1" as="geometry" />
        </mxCell>
        <mxCell id="hc2_yyY3CF_E-ySlYLsW-9" style="edgeStyle=orthogonalEdgeStyle;rounded=0;orthogonalLoop=1;jettySize=auto;html=1;" edge="1" parent="1c1d494c118603dd-1" source="hc2_yyY3CF_E-ySlYLsW-4" target="hc2_yyY3CF_E-ySlYLsW-8">
          <mxGeometry relative="1" as="geometry" />
        </mxCell>
        <mxCell id="hc2_yyY3CF_E-ySlYLsW-14" style="edgeStyle=orthogonalEdgeStyle;rounded=0;orthogonalLoop=1;jettySize=auto;html=1;exitX=0.5;exitY=1;exitDx=0;exitDy=0;entryX=0.103;entryY=-0.235;entryDx=0;entryDy=0;entryPerimeter=0;" edge="1" parent="1c1d494c118603dd-1" source="hc2_yyY3CF_E-ySlYLsW-12" target="1c1d494c118603dd-12">
          <mxGeometry relative="1" as="geometry" />
        </mxCell>
        <mxCell id="hc2_yyY3CF_E-ySlYLsW-17" style="edgeStyle=orthogonalEdgeStyle;rounded=0;orthogonalLoop=1;jettySize=auto;html=1;entryX=0.585;entryY=0.077;entryDx=0;entryDy=0;entryPerimeter=0;exitX=0.25;exitY=1;exitDx=0;exitDy=0;" edge="1" parent="1c1d494c118603dd-1" source="hc2_yyY3CF_E-ySlYLsW-16" target="hc2_yyY3CF_E-ySlYLsW-12">
          <mxGeometry relative="1" as="geometry" />
        </mxCell>
        <mxCell id="hc2_yyY3CF_E-ySlYLsW-26" value="" style="edgeStyle=orthogonalEdgeStyle;rounded=0;orthogonalLoop=1;jettySize=auto;html=1;entryX=1;entryY=0.5;entryDx=0;entryDy=0;" edge="1" parent="1c1d494c118603dd-1" source="1c1d494c118603dd-7" target="hc2_yyY3CF_E-ySlYLsW-65">
          <mxGeometry relative="1" as="geometry" />
        </mxCell>
        <mxCell id="hc2_yyY3CF_E-ySlYLsW-29" style="edgeStyle=orthogonalEdgeStyle;rounded=0;orthogonalLoop=1;jettySize=auto;html=1;entryX=0;entryY=0.5;entryDx=0;entryDy=0;" edge="1" parent="1c1d494c118603dd-1" source="hc2_yyY3CF_E-ySlYLsW-27" target="hc2_yyY3CF_E-ySlYLsW-41">
          <mxGeometry relative="1" as="geometry">
            <mxPoint x="550" y="860" as="targetPoint" />
          </mxGeometry>
        </mxCell>
        <mxCell id="hc2_yyY3CF_E-ySlYLsW-34" style="rounded=0;orthogonalLoop=1;jettySize=auto;html=1;exitX=1;exitY=0;exitDx=0;exitDy=0;entryX=0;entryY=0.5;entryDx=0;entryDy=0;entryPerimeter=0;dashed=1;endArrow=oval;endFill=0;" edge="1" parent="1c1d494c118603dd-1" source="hc2_yyY3CF_E-ySlYLsW-27" target="hc2_yyY3CF_E-ySlYLsW-30">
          <mxGeometry relative="1" as="geometry" />
        </mxCell>
        <mxCell id="hc2_yyY3CF_E-ySlYLsW-39" style="edgeStyle=orthogonalEdgeStyle;rounded=0;orthogonalLoop=1;jettySize=auto;html=1;entryX=1;entryY=0.5;entryDx=0;entryDy=0;" edge="1" parent="1c1d494c118603dd-1" source="hc2_yyY3CF_E-ySlYLsW-37" target="hc2_yyY3CF_E-ySlYLsW-38">
          <mxGeometry relative="1" as="geometry" />
        </mxCell>
        <mxCell id="hc2_yyY3CF_E-ySlYLsW-46" style="rounded=0;orthogonalLoop=1;jettySize=auto;html=1;endArrow=oval;endFill=0;dashed=1;" edge="1" parent="1c1d494c118603dd-1" source="hc2_yyY3CF_E-ySlYLsW-41" target="hc2_yyY3CF_E-ySlYLsW-30">
          <mxGeometry relative="1" as="geometry" />
        </mxCell>
        <mxCell id="hc2_yyY3CF_E-ySlYLsW-51" value="" style="edgeStyle=orthogonalEdgeStyle;rounded=0;orthogonalLoop=1;jettySize=auto;html=1;" edge="1" parent="1c1d494c118603dd-1" source="hc2_yyY3CF_E-ySlYLsW-25" target="hc2_yyY3CF_E-ySlYLsW-47">
          <mxGeometry relative="1" as="geometry" />
        </mxCell>
        <mxCell id="hc2_yyY3CF_E-ySlYLsW-49" style="edgeStyle=orthogonalEdgeStyle;rounded=0;orthogonalLoop=1;jettySize=auto;html=1;entryX=0;entryY=0.5;entryDx=0;entryDy=0;" edge="1" parent="1c1d494c118603dd-1" source="hc2_yyY3CF_E-ySlYLsW-47" target="hc2_yyY3CF_E-ySlYLsW-50">
          <mxGeometry relative="1" as="geometry">
            <mxPoint x="570" y="775" as="targetPoint" />
          </mxGeometry>
        </mxCell>
        <mxCell id="hc2_yyY3CF_E-ySlYLsW-52" style="edgeStyle=orthogonalEdgeStyle;rounded=0;orthogonalLoop=1;jettySize=auto;html=1;" edge="1" parent="1c1d494c118603dd-1" source="hc2_yyY3CF_E-ySlYLsW-50" target="hc2_yyY3CF_E-ySlYLsW-27">
          <mxGeometry relative="1" as="geometry">
            <Array as="points">
              <mxPoint x="619" y="800" />
              <mxPoint x="159" y="800" />
            </Array>
          </mxGeometry>
        </mxCell>
        <mxCell id="hc2_yyY3CF_E-ySlYLsW-58" style="edgeStyle=orthogonalEdgeStyle;rounded=0;orthogonalLoop=1;jettySize=auto;html=1;entryX=0.944;entryY=0.141;entryDx=0;entryDy=0;entryPerimeter=0;" edge="1" parent="1c1d494c118603dd-1" source="hc2_yyY3CF_E-ySlYLsW-55" target="1c1d494c118603dd-12">
          <mxGeometry relative="1" as="geometry">
            <Array as="points">
              <mxPoint x="620" y="560" />
              <mxPoint x="435" y="560" />
            </Array>
          </mxGeometry>
        </mxCell>
        <mxCell id="hc2_yyY3CF_E-ySlYLsW-64" style="rounded=0;orthogonalLoop=1;jettySize=auto;html=1;entryX=0.034;entryY=0.759;entryDx=0;entryDy=0;entryPerimeter=0;exitX=0.25;exitY=0;exitDx=0;exitDy=0;dashed=1;endArrow=oval;endFill=0;" edge="1" parent="1c1d494c118603dd-1" source="hc2_yyY3CF_E-ySlYLsW-12" target="1c1d494c118603dd-21">
          <mxGeometry relative="1" as="geometry" />
        </mxCell>
        <mxCell id="hc2_yyY3CF_E-ySlYLsW-69" style="rounded=0;orthogonalLoop=1;jettySize=auto;html=1;entryX=0;entryY=0.5;entryDx=0;entryDy=0;entryPerimeter=0;dashed=1;endArrow=oval;endFill=0;" edge="1" parent="1c1d494c118603dd-1" source="hc2_yyY3CF_E-ySlYLsW-68" target="1c1d494c118603dd-21">
          <mxGeometry relative="1" as="geometry" />
        </mxCell>
        <mxCell id="hc2_yyY3CF_E-ySlYLsW-70" style="edgeStyle=orthogonalEdgeStyle;rounded=0;orthogonalLoop=1;jettySize=auto;html=1;entryX=0;entryY=0.5;entryDx=0;entryDy=0;exitX=0.25;exitY=1;exitDx=0;exitDy=0;" edge="1" parent="1c1d494c118603dd-1" source="hc2_yyY3CF_E-ySlYLsW-68" target="hc2_yyY3CF_E-ySlYLsW-71">
          <mxGeometry relative="1" as="geometry">
            <Array as="points">
              <mxPoint x="43" y="960" />
              <mxPoint x="215" y="960" />
              <mxPoint x="215" y="955" />
            </Array>
          </mxGeometry>
        </mxCell>
      </root>
    </mxGraphModel>
  </diagram>
</mxfile>
